<?xml version="1.0" encoding="iso-8859-1"?>
<!-- Generator: Adobe Illustrator 18.1.1, SVG Export Plug-In . SVG Version: 6.00 Build 0)  -->
<svg version="1.1" id="Capa_1" xmlns="http://www.w3.org/2000/svg" xmlns:xlink="http://www.w3.org/1999/xlink" x="0px" y="0px"
	 viewBox="0 0 26.93 26.93" style="enable-background:new 0 0 26.93 26.93;" xml:space="preserve">
<g>
	<path d="M26.93,14.541v-4.61c0-1.733-0.008-3.21-0.014-3.811l-5.734,4.022L26.93,14.541z"/>
	<path d="M0,9.76v4.61l5.749-4.399L0.014,5.95C0.01,6.551,0,8.029,0,9.76z"/>
	<polygon points="25.327,4.202 2.172,4.202 1.659,4.197 13.494,12.5 	"/>
	<path d="M18.732,11.273l-4.808,3.374c-0.124,0.086-0.278,0.128-0.431,0.128c-0.151,0-0.302-0.042-0.432-0.128L8.266,11.28
		l-8.051,6.161C0.15,17.49,0.078,17.527,0,17.551v0.087l0.019,5.095h26.88l0.019-5.095v-0.104L18.732,11.273z M24.057,19.49h-2.23
		v2.278h-1.944V19.49h-2.259v-1.942h2.259v-2.212h1.944v2.212h2.23V19.49z"/>
	<g>
	</g>
	<g>
	</g>
	<g>
	</g>
	<g>
	</g>
	<g>
	</g>
	<g>
	</g>
	<g>
	</g>
	<g>
	</g>
	<g>
	</g>
	<g>
	</g>
	<g>
	</g>
	<g>
	</g>
	<g>
	</g>
	<g>
	</g>
	<g>
	</g>
</g>
<g>
</g>
<g>
</g>
<g>
</g>
<g>
</g>
<g>
</g>
<g>
</g>
<g>
</g>
<g>
</g>
<g>
</g>
<g>
</g>
<g>
</g>
<g>
</g>
<g>
</g>
<g>
</g>
<g>
</g>
</svg>
